<?xml version="1.0" standalone="no"?>
<!DOCTYPE svg PUBLIC "-//W3C//DTD SVG 20010904//EN"
 "http://www.w3.org/TR/2001/REC-SVG-20010904/DTD/svg10.dtd">
<svg version="1.0" xmlns="http://www.w3.org/2000/svg"
 width="143.000000pt" height="143.000000pt" viewBox="0 0 143.000000 143.000000"
 preserveAspectRatio="xMidYMid meet">
<metadata>
Created by potrace 1.11, written by Peter Selinger 2001-2013
</metadata>
<g transform="translate(0.000000,143.000000) scale(0.100000,-0.100000)"
fill="#000000" stroke="none">
<path d="M260 1172 l0 -247 -29 -70 c-66 -158 -65 -308 6 -467 23 -51 30 -59
79 -80 49 -21 54 -26 54 -55 0 -74 48 -113 107 -88 34 14 43 31 43 81 0 29 4
34 23 34 12 0 39 9 60 19 l37 19 0 -122 c0 -139 14 -179 69 -191 33 -7 85 15
95 40 3 9 6 75 6 146 l0 129 29 0 c21 0 37 10 60 38 l30 37 1 -112 c0 -103 2
-114 23 -139 30 -35 79 -37 110 -5 18 18 23 35 25 101 4 76 5 80 28 80 68 0
133 182 120 343 -15 199 -132 379 -300 461 -158 76 -299 75 -458 -4 l-77 -39
-3 137 -3 137 -55 32 c-30 18 -60 33 -67 33 -10 0 -13 -52 -13 -248z m524
-157 c53 -22 113 -81 144 -139 23 -44 27 -63 27 -136 0 -99 -20 -148 -81 -198
-49 -40 -107 -55 -201 -51 -156 8 -232 79 -241 227 -3 62 0 88 17 134 26 66
85 132 144 159 51 23 141 25 191 4z"/>
<path d="M567 929 c-40 -30 -54 -87 -33 -131 32 -67 105 -81 157 -29 86 86
-29 235 -124 160z m71 -31 c28 -28 7 -78 -33 -78 -27 0 -45 18 -45 45 0 27 18
45 45 45 12 0 26 -5 33 -12z"/>
</g>
</svg>
